<svg xmlns="http://www.w3.org/2000/svg" viewBox="0 0 1440 320"><path fill="#F5AC4A" fill-opacity="1" d="M0,64L34.3,53.3C68.6,43,137,21,206,32C274.3,43,343,85,411,96C480,107,549,85,617,80C685.7,75,754,85,823,101.3C891.4,117,960,139,1029,144C1097.1,149,1166,139,1234,133.3C1302.9,128,1371,128,1406,128L1440,128L1440,320L1405.7,320C1371.4,320,1303,320,1234,320C1165.7,320,1097,320,1029,320C960,320,891,320,823,320C754.3,320,686,320,617,320C548.6,320,480,320,411,320C342.9,320,274,320,206,320C137.1,320,69,320,34,320L0,320Z"></path></svg>
